<svg width="23" height="18" viewBox="0 0 23 18" fill="none" xmlns="http://www.w3.org/2000/svg">
<path d="M2.77783 2L10.55 8.04498C11.2722 8.60671 12.2835 8.60671 13.0057 8.04498L20.7778 2M4.97783 17H18.5778C19.6979 17 20.258 17 20.6858 16.782C21.0621 16.5903 21.3681 16.2843 21.5598 15.908C21.7778 15.4802 21.7778 14.9201 21.7778 13.8V4.2C21.7778 3.0799 21.7778 2.51984 21.5598 2.09202C21.3681 1.71569 21.0621 1.40973 20.6858 1.21799C20.258 1 19.6979 1 18.5778 1H4.97783C3.85773 1 3.29767 1 2.86985 1.21799C2.49353 1.40973 2.18757 1.71569 1.99582 2.09202C1.77783 2.51984 1.77783 3.07989 1.77783 4.2V13.8C1.77783 14.9201 1.77783 15.4802 1.99582 15.908C2.18757 16.2843 2.49353 16.5903 2.86985 16.782C3.29767 17 3.85773 17 4.97783 17Z" stroke="#3F5477" stroke-width="2"/>
</svg>
