<svg width="30" height="31" viewBox="0 0 30 31" fill="none" xmlns="http://www.w3.org/2000/svg">
<g filter="url(#filter0_iiii_74_1665)">
<path d="M21.25 2.72217H8.75C5.29822 2.72217 2.5 5.52039 2.5 8.97217V21.4722C2.5 24.9239 5.29822 27.7222 8.75 27.7222H21.25C24.7018 27.7222 27.5 24.9239 27.5 21.4722V8.97217C27.5 5.52039 24.7018 2.72217 21.25 2.72217Z" stroke="#9BDAF0" stroke-width="2" stroke-linecap="round" stroke-linejoin="round"/>
<path d="M20 14.4347C20.1543 15.475 19.9766 16.5374 19.4922 17.4709C19.0078 18.4044 18.2414 19.1614 17.302 19.6343C16.3626 20.1071 15.2981 20.2717 14.2597 20.1046C13.2214 19.9375 12.2622 19.4473 11.5185 18.7036C10.7749 17.96 10.2847 17.0008 10.1176 15.9624C9.9505 14.9241 10.1151 13.8595 10.5879 12.9201C11.0607 11.9807 11.8177 11.2144 12.7512 10.73C13.6847 10.2456 14.7472 10.0679 15.7875 10.2222C16.8487 10.3795 17.8311 10.874 18.5896 11.6326C19.3482 12.3911 19.8426 13.3735 20 14.4347Z" stroke="#9BDAF0" stroke-width="2" stroke-linecap="round" stroke-linejoin="round"/>
<path d="M21.875 8.34717H21.8875" stroke="#9BDAF0" stroke-width="2" stroke-linecap="round" stroke-linejoin="round"/>
</g>
<defs>
<filter id="filter0_iiii_74_1665" x="-1" y="0.222168" width="33" height="31" filterUnits="userSpaceOnUse" color-interpolation-filters="sRGB">
<feFlood flood-opacity="0" result="BackgroundImageFix"/>
<feBlend mode="normal" in="SourceGraphic" in2="BackgroundImageFix" result="shape"/>
<feColorMatrix in="SourceAlpha" type="matrix" values="0 0 0 0 0 0 0 0 0 0 0 0 0 0 0 0 0 0 127 0" result="hardAlpha"/>
<feOffset/>
<feGaussianBlur stdDeviation="0.25"/>
<feComposite in2="hardAlpha" operator="arithmetic" k2="-1" k3="1"/>
<feColorMatrix type="matrix" values="0 0 0 0 1 0 0 0 0 1 0 0 0 0 1 0 0 0 0.3 0"/>
<feBlend mode="normal" in2="shape" result="effect1_innerShadow_74_1665"/>
<feColorMatrix in="SourceAlpha" type="matrix" values="0 0 0 0 0 0 0 0 0 0 0 0 0 0 0 0 0 0 127 0" result="hardAlpha"/>
<feOffset dx="-1" dy="1"/>
<feGaussianBlur stdDeviation="1"/>
<feComposite in2="hardAlpha" operator="arithmetic" k2="-1" k3="1"/>
<feColorMatrix type="matrix" values="0 0 0 0 1 0 0 0 0 1 0 0 0 0 1 0 0 0 0.25 0"/>
<feBlend mode="normal" in2="effect1_innerShadow_74_1665" result="effect2_innerShadow_74_1665"/>
<feColorMatrix in="SourceAlpha" type="matrix" values="0 0 0 0 0 0 0 0 0 0 0 0 0 0 0 0 0 0 127 0" result="hardAlpha"/>
<feOffset dx="2"/>
<feGaussianBlur stdDeviation="2"/>
<feComposite in2="hardAlpha" operator="arithmetic" k2="-1" k3="1"/>
<feColorMatrix type="matrix" values="0 0 0 0 0.220833 0 0 0 0 0.220833 0 0 0 0 0.220833 0 0 0 0.28 0"/>
<feBlend mode="normal" in2="effect2_innerShadow_74_1665" result="effect3_innerShadow_74_1665"/>
<feColorMatrix in="SourceAlpha" type="matrix" values="0 0 0 0 0 0 0 0 0 0 0 0 0 0 0 0 0 0 127 0" result="hardAlpha"/>
<feOffset dx="1" dy="1"/>
<feGaussianBlur stdDeviation="1.5"/>
<feComposite in2="hardAlpha" operator="arithmetic" k2="-1" k3="1"/>
<feColorMatrix type="matrix" values="0 0 0 0 0.2 0 0 0 0 0.199167 0 0 0 0 0.199217 0 0 0 0.1 0"/>
<feBlend mode="normal" in2="effect3_innerShadow_74_1665" result="effect4_innerShadow_74_1665"/>
</filter>
</defs>
</svg>
