<svg width="31" height="30" viewBox="0 0 31 30" fill="none" xmlns="http://www.w3.org/2000/svg">
<path d="M22.0278 2.5H9.52783C6.07605 2.5 3.27783 5.29822 3.27783 8.75V21.25C3.27783 24.7018 6.07605 27.5 9.52783 27.5H22.0278C25.4796 27.5 28.2778 24.7018 28.2778 21.25V8.75C28.2778 5.29822 25.4796 2.5 22.0278 2.5Z" stroke="#3F5477" stroke-width="2" stroke-linecap="round" stroke-linejoin="round"/>
<path d="M20.778 14.2124C20.9322 15.2527 20.7545 16.3152 20.2702 17.2487C19.7858 18.1822 19.0194 18.9392 18.08 19.412C17.1406 19.8848 16.076 20.0494 15.0377 19.8823C13.9994 19.7152 13.0402 19.225 12.2965 18.4813C11.5529 17.7377 11.0626 16.7785 10.8955 15.7402C10.7285 14.7018 10.893 13.6373 11.3659 12.6979C11.8387 11.7585 12.5957 10.9921 13.5292 10.5077C14.4627 10.0233 15.5251 9.84562 16.5655 9.99989C17.6266 10.1572 18.609 10.6517 19.3676 11.4103C20.1261 12.1688 20.6206 13.1512 20.778 14.2124Z" stroke="#3F5477" stroke-width="2" stroke-linecap="round" stroke-linejoin="round"/>
<path d="M22.6528 8.125H22.6653" stroke="#3F5477" stroke-width="2" stroke-linecap="round" stroke-linejoin="round"/>
</svg>
