<svg width="30" height="31" viewBox="0 0 30 31" fill="none" xmlns="http://www.w3.org/2000/svg">
<g filter="url(#filter0_iiii_74_1667)">
<path d="M20 10.2222C21.9891 10.2222 23.8968 11.0123 25.3033 12.4189C26.7098 13.8254 27.5 15.733 27.5 17.7222V26.4722H22.5V17.7222C22.5 17.0591 22.2366 16.4232 21.7678 15.9544C21.2989 15.4856 20.663 15.2222 20 15.2222C19.337 15.2222 18.7011 15.4856 18.2322 15.9544C17.7634 16.4232 17.5 17.0591 17.5 17.7222V26.4722H12.5V17.7222C12.5 15.733 13.2902 13.8254 14.6967 12.4189C16.1032 11.0123 18.0109 10.2222 20 10.2222V10.2222Z" stroke="#9BDAF0" stroke-width="2" stroke-linecap="round" stroke-linejoin="round"/>
<path d="M7.5 11.4722H2.5V26.4722H7.5V11.4722Z" stroke="#9BDAF0" stroke-width="2" stroke-linecap="round" stroke-linejoin="round"/>
<path d="M5 7.72217C6.38071 7.72217 7.5 6.60288 7.5 5.22217C7.5 3.84146 6.38071 2.72217 5 2.72217C3.61929 2.72217 2.5 3.84146 2.5 5.22217C2.5 6.60288 3.61929 7.72217 5 7.72217Z" stroke="#9BDAF0" stroke-width="2" stroke-linecap="round" stroke-linejoin="round"/>
</g>
<defs>
<filter id="filter0_iiii_74_1667" x="-1" y="0.222168" width="33" height="31" filterUnits="userSpaceOnUse" color-interpolation-filters="sRGB">
<feFlood flood-opacity="0" result="BackgroundImageFix"/>
<feBlend mode="normal" in="SourceGraphic" in2="BackgroundImageFix" result="shape"/>
<feColorMatrix in="SourceAlpha" type="matrix" values="0 0 0 0 0 0 0 0 0 0 0 0 0 0 0 0 0 0 127 0" result="hardAlpha"/>
<feOffset/>
<feGaussianBlur stdDeviation="0.25"/>
<feComposite in2="hardAlpha" operator="arithmetic" k2="-1" k3="1"/>
<feColorMatrix type="matrix" values="0 0 0 0 1 0 0 0 0 1 0 0 0 0 1 0 0 0 0.3 0"/>
<feBlend mode="normal" in2="shape" result="effect1_innerShadow_74_1667"/>
<feColorMatrix in="SourceAlpha" type="matrix" values="0 0 0 0 0 0 0 0 0 0 0 0 0 0 0 0 0 0 127 0" result="hardAlpha"/>
<feOffset dx="-1" dy="1"/>
<feGaussianBlur stdDeviation="1"/>
<feComposite in2="hardAlpha" operator="arithmetic" k2="-1" k3="1"/>
<feColorMatrix type="matrix" values="0 0 0 0 1 0 0 0 0 1 0 0 0 0 1 0 0 0 0.25 0"/>
<feBlend mode="normal" in2="effect1_innerShadow_74_1667" result="effect2_innerShadow_74_1667"/>
<feColorMatrix in="SourceAlpha" type="matrix" values="0 0 0 0 0 0 0 0 0 0 0 0 0 0 0 0 0 0 127 0" result="hardAlpha"/>
<feOffset dx="2"/>
<feGaussianBlur stdDeviation="2"/>
<feComposite in2="hardAlpha" operator="arithmetic" k2="-1" k3="1"/>
<feColorMatrix type="matrix" values="0 0 0 0 0.220833 0 0 0 0 0.220833 0 0 0 0 0.220833 0 0 0 0.28 0"/>
<feBlend mode="normal" in2="effect2_innerShadow_74_1667" result="effect3_innerShadow_74_1667"/>
<feColorMatrix in="SourceAlpha" type="matrix" values="0 0 0 0 0 0 0 0 0 0 0 0 0 0 0 0 0 0 127 0" result="hardAlpha"/>
<feOffset dx="1" dy="1"/>
<feGaussianBlur stdDeviation="1.5"/>
<feComposite in2="hardAlpha" operator="arithmetic" k2="-1" k3="1"/>
<feColorMatrix type="matrix" values="0 0 0 0 0.2 0 0 0 0 0.199167 0 0 0 0 0.199217 0 0 0 0.1 0"/>
<feBlend mode="normal" in2="effect3_innerShadow_74_1667" result="effect4_innerShadow_74_1667"/>
</filter>
</defs>
</svg>
