<svg width="31" height="30" viewBox="0 0 31 30" fill="none" xmlns="http://www.w3.org/2000/svg">
<path d="M20.7778 10C22.767 10 24.6746 10.7902 26.0811 12.1967C27.4877 13.6032 28.2778 15.5109 28.2778 17.5V26.25H23.2778V17.5C23.2778 16.837 23.0144 16.2011 22.5456 15.7322C22.0768 15.2634 21.4409 15 20.7778 15C20.1148 15 19.4789 15.2634 19.0101 15.7322C18.5412 16.2011 18.2778 16.837 18.2778 17.5V26.25H13.2778V17.5C13.2778 15.5109 14.068 13.6032 15.4745 12.1967C16.8811 10.7902 18.7887 10 20.7778 10V10Z" stroke="#3F5477" stroke-width="2" stroke-linecap="round" stroke-linejoin="round"/>
<path d="M8.27783 11.25H3.27783V26.25H8.27783V11.25Z" stroke="#3F5477" stroke-width="2" stroke-linecap="round" stroke-linejoin="round"/>
<path d="M5.77783 7.5C7.15854 7.5 8.27783 6.38071 8.27783 5C8.27783 3.61929 7.15854 2.5 5.77783 2.5C4.39712 2.5 3.27783 3.61929 3.27783 5C3.27783 6.38071 4.39712 7.5 5.77783 7.5Z" stroke="#3F5477" stroke-width="2" stroke-linecap="round" stroke-linejoin="round"/>
</svg>
