<svg
				
				viewBox="0 0 106 40"
				fill="none"
				xmlns="http://www.w3.org/2000/svg"
			>
				<ellipse
					cx="20.6632"
					cy="6.46853"
					rx="6.5513"
					ry="6.46853"
					fill="black"
				/>
				<ellipse
					cx="20.6632"
					cy="19.9555"
					rx="6.5513"
					ry="6.46853"
					fill="black"
				/>
				<ellipse
					cx="20.6632"
					cy="33.5315"
					rx="6.5513"
					ry="6.46853"
					fill="black"
				/>
				<ellipse
					cx="6.77396"
					cy="6.46853"
					rx="6.5513"
					ry="6.46853"
					fill="black"
				/>
				<ellipse
					cx="6.77408"
					cy="33.5315"
					rx="6.5513"
					ry="6.46853"
					fill="#D09F20"
				/>
				<ellipse
					cx="6.77408"
					cy="19.9555"
					rx="6.5513"
					ry="6.46853"
					fill="#D09F20"
				/>
				<ellipse
					cx="34.8321"
					cy="19.9555"
					rx="6.5513"
					ry="6.46853"
					fill="#D09F20"
				/>
				<ellipse
					cx="34.5078"
					cy="33.5315"
					rx="6.5513"
					ry="6.46853"
					fill="#D09F20"
				/>
				<ellipse
					cx="34.5078"
					cy="6.46853"
					rx="6.5513"
					ry="6.46853"
					fill="black"
				/>
				<path
					d="M55.328 26.328C55.28 26.408 55.2267 26.4693 55.168 26.512C55.1147 26.5493 55.048 26.568 54.968 26.568C54.8773 26.568 54.7707 26.5227 54.648 26.432C54.5253 26.3413 54.3707 26.2427 54.184 26.136C54.0027 26.024 53.7813 25.9227 53.52 25.832C53.264 25.7413 52.952 25.696 52.584 25.696C52.2373 25.696 51.9307 25.744 51.664 25.84C51.4027 25.9307 51.1813 26.056 51 26.216C50.824 26.376 50.6907 26.5653 50.6 26.784C50.5093 26.9973 50.464 27.2293 50.464 27.48C50.464 27.8 50.5413 28.0667 50.696 28.28C50.856 28.488 51.064 28.6667 51.32 28.816C51.5813 28.9653 51.8747 29.096 52.2 29.208C52.5307 29.3147 52.8667 29.4267 53.208 29.544C53.5547 29.6613 53.8907 29.7947 54.216 29.944C54.5467 30.088 54.84 30.272 55.096 30.496C55.3573 30.72 55.5653 30.9947 55.72 31.32C55.88 31.6453 55.96 32.0453 55.96 32.52C55.96 33.0213 55.8747 33.4933 55.704 33.936C55.5333 34.3733 55.2827 34.7547 54.952 35.08C54.6267 35.4053 54.224 35.6613 53.744 35.848C53.2693 36.0347 52.728 36.128 52.12 36.128C51.3733 36.128 50.696 35.9947 50.088 35.728C49.48 35.456 48.96 35.0907 48.528 34.632L48.976 33.896C49.0187 33.8373 49.0693 33.7893 49.128 33.752C49.192 33.7093 49.2613 33.688 49.336 33.688C49.4053 33.688 49.4827 33.7173 49.568 33.776C49.6587 33.8293 49.76 33.8987 49.872 33.984C49.984 34.0693 50.112 34.1627 50.256 34.264C50.4 34.3653 50.5627 34.4587 50.744 34.544C50.9307 34.6293 51.1413 34.7013 51.376 34.76C51.6107 34.8133 51.8747 34.84 52.168 34.84C52.536 34.84 52.864 34.7893 53.152 34.688C53.44 34.5867 53.6827 34.4453 53.88 34.264C54.0827 34.0773 54.2373 33.856 54.344 33.6C54.4507 33.344 54.504 33.0587 54.504 32.744C54.504 32.3973 54.424 32.1147 54.264 31.896C54.1093 31.672 53.904 31.4853 53.648 31.336C53.392 31.1867 53.0987 31.0613 52.768 30.96C52.4373 30.8533 52.1013 30.7467 51.76 30.64C51.4187 30.528 51.0827 30.4 50.752 30.256C50.4213 30.112 50.128 29.9253 49.872 29.696C49.616 29.4667 49.408 29.1813 49.248 28.84C49.0933 28.4933 49.016 28.0667 49.016 27.56C49.016 27.1547 49.0933 26.7627 49.248 26.384C49.408 26.0053 49.6373 25.6693 49.936 25.376C50.24 25.0827 50.6107 24.848 51.048 24.672C51.4907 24.496 51.9973 24.408 52.568 24.408C53.208 24.408 53.7893 24.5093 54.312 24.712C54.84 24.9147 55.304 25.208 55.704 25.592L55.328 26.328ZM61.1846 27.768C61.7766 27.768 62.31 27.8667 62.7846 28.064C63.2593 28.2613 63.6646 28.5413 64.0006 28.904C64.3366 29.2667 64.5926 29.7067 64.7686 30.224C64.95 30.736 65.0406 31.3093 65.0406 31.944C65.0406 32.584 64.95 33.16 64.7686 33.672C64.5926 34.184 64.3366 34.6213 64.0006 34.984C63.6646 35.3467 63.2593 35.6267 62.7846 35.824C62.31 36.016 61.7766 36.112 61.1846 36.112C60.5873 36.112 60.0486 36.016 59.5686 35.824C59.094 35.6267 58.6886 35.3467 58.3526 34.984C58.0166 34.6213 57.758 34.184 57.5766 33.672C57.4006 33.16 57.3126 32.584 57.3126 31.944C57.3126 31.3093 57.4006 30.736 57.5766 30.224C57.758 29.7067 58.0166 29.2667 58.3526 28.904C58.6886 28.5413 59.094 28.2613 59.5686 28.064C60.0486 27.8667 60.5873 27.768 61.1846 27.768ZM61.1846 35C61.9846 35 62.582 34.7333 62.9766 34.2C63.3713 33.6613 63.5686 32.912 63.5686 31.952C63.5686 30.9867 63.3713 30.2347 62.9766 29.696C62.582 29.1573 61.9846 28.888 61.1846 28.888C60.7793 28.888 60.4246 28.9573 60.1206 29.096C59.822 29.2347 59.5713 29.4347 59.3686 29.696C59.1713 29.9573 59.022 30.28 58.9206 30.664C58.8246 31.0427 58.7766 31.472 58.7766 31.952C58.7766 32.912 58.974 33.6613 59.3686 34.2C59.7686 34.7333 60.374 35 61.1846 35ZM68.3188 24.216V36H66.8947V24.216H68.3188ZM77.292 27.896V36H76.444C76.2413 36 76.1133 35.9013 76.06 35.704L75.948 34.832C75.596 35.2213 75.2013 35.536 74.764 35.776C74.3267 36.0107 73.8253 36.128 73.26 36.128C72.8173 36.128 72.4253 36.056 72.084 35.912C71.748 35.7627 71.4653 35.5547 71.236 35.288C71.0067 35.0213 70.8333 34.6987 70.716 34.32C70.604 33.9413 70.548 33.5227 70.548 33.064V27.896H71.972V33.064C71.972 33.6773 72.1107 34.152 72.388 34.488C72.6707 34.824 73.1 34.992 73.676 34.992C74.0973 34.992 74.4893 34.8933 74.852 34.696C75.22 34.4933 75.5587 34.216 75.868 33.864V27.896H77.292ZM87.0699 36H85.6459V29.088H81.4699V33.952C81.4699 34.2933 81.5525 34.5467 81.7179 34.712C81.8832 34.8773 82.0965 34.96 82.3579 34.96C82.5072 34.96 82.6352 34.9413 82.7419 34.904C82.8539 34.8613 82.9499 34.816 83.0299 34.768C83.1099 34.72 83.1765 34.6773 83.2299 34.64C83.2885 34.5973 83.3392 34.576 83.3819 34.576C83.4565 34.576 83.5232 34.6213 83.5819 34.712L83.9979 35.392C83.7525 35.6213 83.4565 35.8027 83.1099 35.936C82.7632 36.064 82.4059 36.128 82.0379 36.128C81.3979 36.128 80.9045 35.9493 80.5579 35.592C80.2165 35.2347 80.0459 34.72 80.0459 34.048V29.088H79.0699C78.9845 29.088 78.9125 29.064 78.8539 29.016C78.7952 28.9627 78.7659 28.8827 78.7659 28.776V28.208L80.0939 28.032L80.4219 25.536C80.4379 25.456 80.4725 25.392 80.5259 25.344C80.5845 25.2907 80.6592 25.264 80.7499 25.264H81.4699V28.056H87.0699V36ZM87.4219 25.296C87.4219 25.4347 87.3925 25.5653 87.3339 25.688C87.2805 25.8053 87.2059 25.9093 87.1099 26C87.0192 26.0907 86.9125 26.1627 86.7899 26.216C86.6672 26.2693 86.5365 26.296 86.3979 26.296C86.2592 26.296 86.1285 26.2693 86.0059 26.216C85.8885 26.1627 85.7845 26.0907 85.6939 26C85.6032 25.9093 85.5312 25.8053 85.4779 25.688C85.4245 25.5653 85.3979 25.4347 85.3979 25.296C85.3979 25.1573 85.4245 25.0267 85.4779 24.904C85.5312 24.776 85.6032 24.6667 85.6939 24.576C85.7845 24.48 85.8885 24.4053 86.0059 24.352C86.1285 24.2987 86.2592 24.272 86.3979 24.272C86.5365 24.272 86.6672 24.2987 86.7899 24.352C86.9125 24.4053 87.0192 24.48 87.1099 24.576C87.2059 24.6667 87.2805 24.776 87.3339 24.904C87.3925 25.0267 87.4219 25.1573 87.4219 25.296ZM92.8253 27.768C93.4173 27.768 93.9506 27.8667 94.4253 28.064C94.8999 28.2613 95.3053 28.5413 95.6413 28.904C95.9773 29.2667 96.2333 29.7067 96.4093 30.224C96.5906 30.736 96.6813 31.3093 96.6813 31.944C96.6813 32.584 96.5906 33.16 96.4093 33.672C96.2333 34.184 95.9773 34.6213 95.6413 34.984C95.3053 35.3467 94.8999 35.6267 94.4253 35.824C93.9506 36.016 93.4173 36.112 92.8253 36.112C92.2279 36.112 91.6893 36.016 91.2093 35.824C90.7346 35.6267 90.3293 35.3467 89.9933 34.984C89.6573 34.6213 89.3986 34.184 89.2173 33.672C89.0413 33.16 88.9533 32.584 88.9533 31.944C88.9533 31.3093 89.0413 30.736 89.2173 30.224C89.3986 29.7067 89.6573 29.2667 89.9933 28.904C90.3293 28.5413 90.7346 28.2613 91.2093 28.064C91.6893 27.8667 92.2279 27.768 92.8253 27.768ZM92.8253 35C93.6253 35 94.2226 34.7333 94.6173 34.2C95.0119 33.6613 95.2093 32.912 95.2093 31.952C95.2093 30.9867 95.0119 30.2347 94.6173 29.696C94.2226 29.1573 93.6253 28.888 92.8253 28.888C92.4199 28.888 92.0653 28.9573 91.7613 29.096C91.4626 29.2347 91.2119 29.4347 91.0093 29.696C90.8119 29.9573 90.6626 30.28 90.5613 30.664C90.4653 31.0427 90.4173 31.472 90.4173 31.952C90.4173 32.912 90.6146 33.6613 91.0093 34.2C91.4093 34.7333 92.0146 35 92.8253 35ZM99.8314 29.072C100.007 28.8747 100.194 28.696 100.391 28.536C100.589 28.376 100.797 28.24 101.015 28.128C101.239 28.0107 101.474 27.9227 101.719 27.864C101.97 27.8 102.239 27.768 102.527 27.768C102.97 27.768 103.359 27.8427 103.695 27.992C104.037 28.136 104.319 28.344 104.543 28.616C104.773 28.8827 104.946 29.2053 105.063 29.584C105.181 29.9627 105.239 30.3813 105.239 30.84V36H103.807V30.84C103.807 30.2267 103.666 29.752 103.383 29.416C103.106 29.0747 102.682 28.904 102.111 28.904C101.69 28.904 101.295 29.0053 100.927 29.208C100.565 29.4107 100.229 29.6853 99.9194 30.032V36H98.4874V27.896H99.3434C99.546 27.896 99.6714 27.9947 99.7194 28.192L99.8314 29.072Z"
					fill="black"
				/>
				<path
					d="M55.447 13.555C55.447 14.435 55.337 15.2233 55.117 15.92C54.9043 16.6167 54.5853 17.207 54.16 17.691C53.742 18.1677 53.225 18.5343 52.609 18.791C51.993 19.0477 51.2853 19.176 50.486 19.176C49.76 19.176 49.0193 19.0733 48.264 18.868C48.2787 18.6553 48.297 18.4463 48.319 18.241C48.341 18.0283 48.3593 17.8193 48.374 17.614C48.3887 17.4893 48.4327 17.3903 48.506 17.317C48.5867 17.2363 48.7077 17.196 48.869 17.196C49.001 17.196 49.1733 17.229 49.386 17.295C49.606 17.361 49.8993 17.394 50.266 17.394C50.75 17.394 51.1827 17.3207 51.564 17.174C51.9453 17.0273 52.2643 16.8 52.521 16.492C52.7777 16.184 52.972 15.7917 53.104 15.315C53.2433 14.831 53.313 14.259 53.313 13.599V3.237H55.447V13.555ZM73.8797 11.124C73.8797 12.3047 73.6927 13.39 73.3187 14.38C72.9447 15.3627 72.4167 16.2097 71.7347 16.921C71.0527 17.6323 70.2314 18.186 69.2707 18.582C68.3174 18.9707 67.2614 19.165 66.1027 19.165C64.9441 19.165 63.8881 18.9707 62.9347 18.582C61.9814 18.186 61.1637 17.6323 60.4817 16.921C59.7997 16.2097 59.2717 15.3627 58.8977 14.38C58.5237 13.39 58.3367 12.3047 58.3367 11.124C58.3367 9.94333 58.5237 8.86167 58.8977 7.879C59.2717 6.889 59.7997 6.03833 60.4817 5.327C61.1637 4.60833 61.9814 4.051 62.9347 3.655C63.8881 3.259 64.9441 3.061 66.1027 3.061C67.2614 3.061 68.3174 3.259 69.2707 3.655C70.2314 4.051 71.0527 4.60833 71.7347 5.327C72.4167 6.03833 72.9447 6.889 73.3187 7.879C73.6927 8.86167 73.8797 9.94333 73.8797 11.124ZM71.6907 11.124C71.6907 10.156 71.5587 9.287 71.2947 8.517C71.0307 7.747 70.6567 7.098 70.1727 6.57C69.6887 6.03467 69.1021 5.624 68.4127 5.338C67.7234 5.052 66.9534 4.909 66.1027 4.909C65.2594 4.909 64.4931 5.052 63.8037 5.338C63.1144 5.624 62.5241 6.03467 62.0327 6.57C61.5487 7.098 61.1747 7.747 60.9107 8.517C60.6467 9.287 60.5147 10.156 60.5147 11.124C60.5147 12.092 60.6467 12.961 60.9107 13.731C61.1747 14.4937 61.5487 15.1427 62.0327 15.678C62.5241 16.206 63.1144 16.613 63.8037 16.899C64.4931 17.1777 65.2594 17.317 66.1027 17.317C66.9534 17.317 67.7234 17.1777 68.4127 16.899C69.1021 16.613 69.6887 16.206 70.1727 15.678C70.6567 15.1427 71.0307 14.4937 71.2947 13.731C71.5587 12.961 71.6907 12.092 71.6907 11.124ZM86.8829 5.03H81.7789V19H79.6559V5.03H74.5409V3.237H86.8829V5.03Z"
					fill="#D09F20"
				/>
			</svg>