<svg width="285" height="116" viewBox="0 0 285 116" fill="none" xmlns="http://www.w3.org/2000/svg">
<ellipse cx="58.523" cy="18.5199" rx="18.7569" ry="18.5199" fill="black"/>
<ellipse cx="58.523" cy="57.1342" rx="18.7569" ry="18.5199" fill="black"/>
<ellipse cx="58.523" cy="96.0043" rx="18.7569" ry="18.5199" fill="black"/>
<ellipse cx="18.7569" cy="18.5199" rx="18.7569" ry="18.5199" fill="black"/>
<ellipse cx="18.7569" cy="96.0043" rx="18.7569" ry="18.5199" fill="#D09F20"/>
<ellipse cx="18.7569" cy="57.1342" rx="18.7569" ry="18.5199" fill="#D09F20"/>
<ellipse cx="99.0894" cy="57.1342" rx="18.7569" ry="18.5199" fill="#D09F20"/>
<ellipse cx="98.9229" cy="97.2553" rx="18.7569" ry="18.5199" fill="#D09F20"/>
<ellipse cx="98.1617" cy="18.5199" rx="18.7569" ry="18.5199" fill="black"/>
<path d="M160.668 42.3889C160.668 44.4512 160.41 46.2987 159.895 47.9313C159.396 49.564 158.649 50.9475 157.652 52.0817C156.672 53.1988 155.461 54.0581 154.017 54.6596C152.574 55.2611 150.915 55.5619 149.042 55.5619C147.34 55.5619 145.605 55.3213 143.835 54.8401C143.869 54.3417 143.912 53.8519 143.963 53.3707C144.015 52.8723 144.058 52.3825 144.092 51.9013C144.127 51.6091 144.23 51.3771 144.402 51.2052C144.591 51.0162 144.874 50.9217 145.252 50.9217C145.562 50.9217 145.966 50.999 146.464 51.1537C146.98 51.3084 147.667 51.3857 148.526 51.3857C149.661 51.3857 150.675 51.2138 151.568 50.8701C152.462 50.5264 153.209 49.9936 153.811 49.2718C154.412 48.55 154.868 47.6306 155.177 46.5135C155.504 45.3792 155.667 44.0387 155.667 42.492V18.2083H160.668V42.3889ZM203.866 36.6917C203.866 39.4587 203.428 42.0022 202.551 44.3223C201.675 46.6252 200.437 48.6102 198.839 50.2772C197.241 51.9442 195.316 53.2418 193.065 54.1698C190.83 55.0807 188.356 55.5361 185.64 55.5361C182.925 55.5361 180.45 55.0807 178.216 54.1698C175.982 53.2418 174.066 51.9442 172.467 50.2772C170.869 48.6102 169.632 46.6252 168.755 44.3223C167.879 42.0022 167.44 39.4587 167.44 36.6917C167.44 33.9248 167.879 31.3899 168.755 29.0869C169.632 26.7668 170.869 24.7733 172.467 23.1062C174.066 21.422 175.982 20.1159 178.216 19.1879C180.45 18.2598 182.925 17.7958 185.64 17.7958C188.356 17.7958 190.83 18.2598 193.065 19.1879C195.316 20.1159 197.241 21.422 198.839 23.1062C200.437 24.7733 201.675 26.7668 202.551 29.0869C203.428 31.3899 203.866 33.9248 203.866 36.6917ZM198.736 36.6917C198.736 34.4232 198.427 32.3866 197.808 30.5821C197.189 28.7776 196.313 27.2566 195.178 26.0193C194.044 24.7647 192.669 23.8023 191.054 23.132C189.438 22.4618 187.634 22.1266 185.64 22.1266C183.664 22.1266 181.868 22.4618 180.252 23.132C178.637 23.8023 177.253 24.7647 176.102 26.0193C174.968 27.2566 174.091 28.7776 173.473 30.5821C172.854 32.3866 172.545 34.4232 172.545 36.6917C172.545 38.9603 172.854 40.9968 173.473 42.8013C174.091 44.5887 174.968 46.1096 176.102 47.3642C177.253 48.6016 178.637 49.5554 180.252 50.2256C181.868 50.8787 183.664 51.2052 185.64 51.2052C187.634 51.2052 189.438 50.8787 191.054 50.2256C192.669 49.5554 194.044 48.6016 195.178 47.3642C196.313 46.1096 197.189 44.5887 197.808 42.8013C198.427 40.9968 198.736 38.9603 198.736 36.6917ZM234.339 22.4102H222.378V55.1494H217.403V22.4102H205.415V18.2083H234.339V22.4102Z" fill="#D09F20"/>
<path d="M160.926 80.25C160.81 80.4433 160.681 80.5916 160.539 80.6947C160.41 80.7849 160.249 80.83 160.056 80.83C159.837 80.83 159.579 80.7205 159.283 80.5013C158.986 80.2822 158.612 80.0438 158.161 79.786C157.723 79.5153 157.188 79.2704 156.556 79.0513C155.938 78.8321 155.184 78.7226 154.294 78.7226C153.456 78.7226 152.715 78.8386 152.071 79.0706C151.439 79.2897 150.904 79.5926 150.466 79.9793C150.041 80.366 149.719 80.8236 149.499 81.352C149.28 81.8676 149.171 82.4283 149.171 83.0341C149.171 83.8075 149.358 84.4519 149.731 84.9675C150.118 85.4702 150.621 85.902 151.24 86.2629C151.871 86.6238 152.58 86.9396 153.366 87.2103C154.165 87.4681 154.977 87.7388 155.802 88.0223C156.64 88.3059 157.452 88.6281 158.238 88.989C159.038 89.337 159.747 89.7817 160.365 90.3231C160.997 90.8644 161.5 91.5283 161.873 92.3145C162.26 93.1008 162.453 94.0675 162.453 95.2146C162.453 96.4262 162.247 97.567 161.835 98.6368C161.422 99.6937 160.816 100.615 160.017 101.402C159.231 102.188 158.258 102.807 157.098 103.258C155.951 103.709 154.642 103.934 153.173 103.934C151.368 103.934 149.731 103.612 148.262 102.968C146.793 102.31 145.536 101.427 144.492 100.319L145.575 98.5401C145.678 98.3983 145.8 98.2823 145.942 98.1921C146.097 98.089 146.264 98.0374 146.445 98.0374C146.612 98.0374 146.799 98.1083 147.005 98.2501C147.224 98.379 147.469 98.5466 147.74 98.7528C148.011 98.959 148.32 99.1846 148.668 99.4295C149.016 99.6744 149.409 99.8999 149.847 100.106C150.299 100.312 150.808 100.486 151.375 100.628C151.942 100.757 152.58 100.822 153.289 100.822C154.178 100.822 154.971 100.699 155.667 100.454C156.363 100.209 156.95 99.8677 157.426 99.4295C157.916 98.9784 158.29 98.4434 158.548 97.8247C158.806 97.2061 158.935 96.5165 158.935 95.756C158.935 94.9182 158.741 94.235 158.354 93.7066C157.981 93.1652 157.484 92.7141 156.866 92.3532C156.247 91.9923 155.538 91.6894 154.739 91.4445C153.94 91.1867 153.128 90.9289 152.303 90.6711C151.478 90.4004 150.666 90.0911 149.867 89.7431C149.068 89.395 148.359 88.9439 147.74 88.3897C147.121 87.8354 146.619 87.1458 146.232 86.3209C145.858 85.4831 145.671 84.4519 145.671 83.2274C145.671 82.2479 145.858 81.3005 146.232 80.3853C146.619 79.4702 147.173 78.6581 147.895 77.9492C148.629 77.2403 149.525 76.6732 150.582 76.2478C151.652 75.8225 152.876 75.6098 154.256 75.6098C155.802 75.6098 157.207 75.8547 158.47 76.3445C159.747 76.8343 160.868 77.5432 161.835 78.4712L160.926 80.25ZM175.08 83.7301C176.511 83.7301 177.8 83.9686 178.947 84.4455C180.094 84.9224 181.074 85.5991 181.886 86.4756C182.698 87.3521 183.316 88.4155 183.742 89.6657C184.18 90.9031 184.399 92.2887 184.399 93.8226C184.399 95.3693 184.18 96.7614 183.742 97.9988C183.316 99.2361 182.698 100.293 181.886 101.17C181.074 102.046 180.094 102.723 178.947 103.2C177.8 103.664 176.511 103.896 175.08 103.896C173.636 103.896 172.335 103.664 171.175 103.2C170.027 102.723 169.048 102.046 168.236 101.17C167.424 100.293 166.799 99.2361 166.36 97.9988C165.935 96.7614 165.722 95.3693 165.722 93.8226C165.722 92.2887 165.935 90.9031 166.36 89.6657C166.799 88.4155 167.424 87.3521 168.236 86.4756C169.048 85.5991 170.027 84.9224 171.175 84.4455C172.335 83.9686 173.636 83.7301 175.08 83.7301ZM175.08 101.208C177.013 101.208 178.457 100.564 179.411 99.2748C180.365 97.973 180.842 96.162 180.842 93.8419C180.842 91.5089 180.365 89.6915 179.411 88.3897C178.457 87.0878 177.013 86.4369 175.08 86.4369C174.1 86.4369 173.243 86.6045 172.509 86.9396C171.787 87.2747 171.181 87.7581 170.691 88.3897C170.214 89.0213 169.853 89.8011 169.608 90.7291C169.376 91.6443 169.26 92.6819 169.26 93.8419C169.26 96.162 169.737 97.973 170.691 99.2748C171.658 100.564 173.121 101.208 175.08 101.208ZM192.322 75.1458V103.625H188.88V75.1458H192.322ZM214.008 84.0395V103.625H211.958C211.469 103.625 211.159 103.387 211.03 102.91L210.76 100.802C209.909 101.743 208.955 102.504 207.898 103.084C206.841 103.651 205.63 103.934 204.263 103.934C203.194 103.934 202.246 103.76 201.421 103.412C200.609 103.051 199.926 102.549 199.372 101.904C198.818 101.26 198.399 100.48 198.115 99.5648C197.845 98.6497 197.709 97.6379 197.709 96.5294V84.0395H201.151V96.5294C201.151 98.0116 201.486 99.1588 202.156 99.9708C202.839 100.783 203.877 101.189 205.269 101.189C206.287 101.189 207.234 100.95 208.111 100.474C209 99.9837 209.819 99.3135 210.566 98.4628V84.0395H214.008ZM237.639 103.625H234.197V86.9203H224.105V98.6755C224.105 99.5004 224.305 100.113 224.704 100.512C225.104 100.912 225.619 101.112 226.251 101.112C226.612 101.112 226.921 101.066 227.179 100.976C227.45 100.873 227.682 100.764 227.875 100.648C228.068 100.532 228.229 100.428 228.358 100.338C228.5 100.235 228.623 100.184 228.726 100.184C228.906 100.184 229.067 100.293 229.209 100.512L230.214 102.156C229.622 102.71 228.906 103.148 228.068 103.47C227.231 103.78 226.367 103.934 225.478 103.934C223.931 103.934 222.739 103.503 221.901 102.639C221.076 101.775 220.663 100.532 220.663 98.9075V86.9203H218.305C218.098 86.9203 217.924 86.8623 217.783 86.7463C217.641 86.6174 217.57 86.424 217.57 86.1662V84.7935L220.779 84.3682L221.572 78.3359C221.611 78.1426 221.695 77.9879 221.823 77.8719C221.965 77.743 222.146 77.6785 222.365 77.6785H224.105V84.4262H237.639V103.625ZM238.489 77.7559C238.489 78.091 238.419 78.4068 238.277 78.7033C238.148 78.9868 237.967 79.2382 237.735 79.4573C237.516 79.6764 237.259 79.8504 236.962 79.9793C236.666 80.1082 236.35 80.1726 236.015 80.1726C235.68 80.1726 235.364 80.1082 235.067 79.9793C234.784 79.8504 234.532 79.6764 234.313 79.4573C234.094 79.2382 233.92 78.9868 233.791 78.7033C233.662 78.4068 233.598 78.091 233.598 77.7559C233.598 77.4208 233.662 77.105 233.791 76.8085C233.92 76.4992 234.094 76.2349 234.313 76.0158C234.532 75.7838 234.784 75.6033 235.067 75.4744C235.364 75.3456 235.68 75.2811 236.015 75.2811C236.35 75.2811 236.666 75.3456 236.962 75.4744C237.259 75.6033 237.516 75.7838 237.735 76.0158C237.967 76.2349 238.148 76.4992 238.277 76.8085C238.419 77.105 238.489 77.4208 238.489 77.7559ZM251.548 83.7301C252.979 83.7301 254.268 83.9686 255.415 84.4455C256.562 84.9224 257.542 85.5991 258.354 86.4756C259.166 87.3521 259.785 88.4155 260.21 89.6657C260.648 90.9031 260.867 92.2887 260.867 93.8226C260.867 95.3693 260.648 96.7614 260.21 97.9988C259.785 99.2361 259.166 100.293 258.354 101.17C257.542 102.046 256.562 102.723 255.415 103.2C254.268 103.664 252.979 103.896 251.548 103.896C250.105 103.896 248.803 103.664 247.643 103.2C246.496 102.723 245.516 102.046 244.704 101.17C243.892 100.293 243.267 99.2361 242.828 97.9988C242.403 96.7614 242.19 95.3693 242.19 93.8226C242.19 92.2887 242.403 90.9031 242.828 89.6657C243.267 88.4155 243.892 87.3521 244.704 86.4756C245.516 85.5991 246.496 84.9224 247.643 84.4455C248.803 83.9686 250.105 83.7301 251.548 83.7301ZM251.548 101.208C253.482 101.208 254.925 100.564 255.879 99.2748C256.833 97.973 257.31 96.162 257.31 93.8419C257.31 91.5089 256.833 89.6915 255.879 88.3897C254.925 87.0878 253.482 86.4369 251.548 86.4369C250.569 86.4369 249.711 86.6045 248.977 86.9396C248.255 87.2747 247.649 87.7581 247.159 88.3897C246.682 89.0213 246.322 89.8011 246.077 90.7291C245.845 91.6443 245.729 92.6819 245.729 93.8419C245.729 96.162 246.206 97.973 247.159 99.2748C248.126 100.564 249.589 101.208 251.548 101.208ZM268.48 86.8816C268.906 86.4047 269.357 85.9729 269.834 85.5862C270.311 85.1995 270.813 84.8709 271.342 84.6002C271.883 84.3166 272.45 84.1039 273.043 83.9621C273.649 83.8075 274.3 83.7301 274.996 83.7301C276.066 83.7301 277.007 83.9106 277.819 84.2715C278.644 84.6195 279.327 85.1222 279.868 85.7796C280.422 86.424 280.841 87.2038 281.125 88.119C281.409 89.0341 281.55 90.046 281.55 91.1545V103.625H278.089V91.1545C278.089 89.6722 277.748 88.525 277.065 87.713C276.395 86.8881 275.37 86.4756 273.991 86.4756C272.972 86.4756 272.019 86.7205 271.129 87.2103C270.253 87.7001 269.441 88.3639 268.693 89.2017V103.625H265.232V84.0395H267.301C267.791 84.0395 268.094 84.2779 268.21 84.7548L268.48 86.8816Z" fill="black"/>
</svg>
