<svg width="155" height="64" viewBox="0 0 155 64" fill="none" xmlns="http://www.w3.org/2000/svg">
<ellipse cx="31.7827" cy="10.6203" rx="10.1865" ry="10.0578" fill="black"/>
<ellipse cx="31.7827" cy="31.5915" rx="10.1865" ry="10.0578" fill="black"/>
<ellipse cx="31.7827" cy="52.7004" rx="10.1865" ry="10.0578" fill="black"/>
<ellipse cx="10.1865" cy="10.6203" rx="10.1865" ry="10.0578" fill="black"/>
<ellipse cx="10.1865" cy="52.7004" rx="10.1865" ry="10.0578" fill="#D09F20"/>
<ellipse cx="10.1865" cy="31.5915" rx="10.1865" ry="10.0578" fill="#D09F20"/>
<ellipse cx="53.8134" cy="31.5915" rx="10.1865" ry="10.0578" fill="#D09F20"/>
<ellipse cx="53.7231" cy="53.3796" rx="10.1865" ry="10.0578" fill="#D09F20"/>
<ellipse cx="53.3095" cy="10.6203" rx="10.1865" ry="10.0578" fill="black"/>
<path d="M87.2558 24.07C87.2558 25.19 87.1158 26.1933 86.8358 27.08C86.5652 27.9667 86.1592 28.718 85.6178 29.334C85.0858 29.9407 84.4278 30.4073 83.6438 30.734C82.8598 31.0607 81.9592 31.224 80.9418 31.224C80.0178 31.224 79.0752 31.0933 78.1138 30.832C78.1325 30.5613 78.1558 30.2953 78.1838 30.034C78.2118 29.7633 78.2352 29.4973 78.2538 29.236C78.2725 29.0773 78.3285 28.9513 78.4218 28.858C78.5245 28.7553 78.6785 28.704 78.8838 28.704C79.0518 28.704 79.2712 28.746 79.5418 28.83C79.8218 28.914 80.1952 28.956 80.6618 28.956C81.2778 28.956 81.8285 28.8627 82.3138 28.676C82.7992 28.4893 83.2052 28.2 83.5318 27.808C83.8585 27.416 84.1058 26.9167 84.2738 26.31C84.4512 25.694 84.5398 24.966 84.5398 24.126V10.938H87.2558V24.07ZM110.716 20.976C110.716 22.4787 110.478 23.86 110.002 25.12C109.526 26.3707 108.854 27.4487 107.986 28.354C107.118 29.2593 106.072 29.964 104.85 30.468C103.636 30.9627 102.292 31.21 100.818 31.21C99.343 31.21 97.999 30.9627 96.7857 30.468C95.5723 29.964 94.5317 29.2593 93.6637 28.354C92.7957 27.4487 92.1237 26.3707 91.6477 25.12C91.1717 23.86 90.9337 22.4787 90.9337 20.976C90.9337 19.4733 91.1717 18.0967 91.6477 16.846C92.1237 15.586 92.7957 14.5033 93.6637 13.598C94.5317 12.6833 95.5723 11.974 96.7857 11.47C97.999 10.966 99.343 10.714 100.818 10.714C102.292 10.714 103.636 10.966 104.85 11.47C106.072 11.974 107.118 12.6833 107.986 13.598C108.854 14.5033 109.526 15.586 110.002 16.846C110.478 18.0967 110.716 19.4733 110.716 20.976ZM107.93 20.976C107.93 19.744 107.762 18.638 107.426 17.658C107.09 16.678 106.614 15.852 105.998 15.18C105.382 14.4987 104.635 13.976 103.758 13.612C102.88 13.248 101.9 13.066 100.818 13.066C99.7443 13.066 98.769 13.248 97.8917 13.612C97.0143 13.976 96.263 14.4987 95.6377 15.18C95.0217 15.852 94.5457 16.678 94.2097 17.658C93.8737 18.638 93.7057 19.744 93.7057 20.976C93.7057 22.208 93.8737 23.314 94.2097 24.294C94.5457 25.2647 95.0217 26.0907 95.6377 26.772C96.263 27.444 97.0143 27.962 97.8917 28.326C98.769 28.6807 99.7443 28.858 100.818 28.858C101.9 28.858 102.88 28.6807 103.758 28.326C104.635 27.962 105.382 27.444 105.998 26.772C106.614 26.0907 107.09 25.2647 107.426 24.294C107.762 23.314 107.93 22.208 107.93 20.976ZM127.265 13.22H120.769V31H118.067V13.22H111.557V10.938H127.265V13.22Z" fill="#D09F20"/>
<path d="M87.3958 44.3055C87.3328 44.4105 87.2628 44.491 87.1858 44.547C87.1158 44.596 87.0283 44.6205 86.9233 44.6205C86.8043 44.6205 86.6643 44.561 86.5033 44.442C86.3423 44.323 86.1393 44.1935 85.8943 44.0535C85.6563 43.9065 85.3658 43.7735 85.0228 43.6545C84.6868 43.5355 84.2773 43.476 83.7943 43.476C83.3393 43.476 82.9368 43.539 82.5868 43.665C82.2438 43.784 81.9533 43.9485 81.7153 44.1585C81.4843 44.3685 81.3093 44.617 81.1903 44.904C81.0713 45.184 81.0118 45.4885 81.0118 45.8175C81.0118 46.2375 81.1133 46.5875 81.3163 46.8675C81.5263 47.1405 81.7993 47.375 82.1353 47.571C82.4783 47.767 82.8633 47.9385 83.2903 48.0855C83.7243 48.2255 84.1653 48.3725 84.6133 48.5265C85.0683 48.6805 85.5093 48.8555 85.9363 49.0515C86.3703 49.2405 86.7553 49.482 87.0913 49.776C87.4343 50.07 87.7073 50.4305 87.9103 50.8575C88.1203 51.2845 88.2253 51.8095 88.2253 52.4325C88.2253 53.0905 88.1133 53.71 87.8893 54.291C87.6653 54.865 87.3363 55.3655 86.9023 55.7925C86.4753 56.2195 85.9468 56.5555 85.3168 56.8005C84.6938 57.0455 83.9833 57.168 83.1853 57.168C82.2053 57.168 81.3163 56.993 80.5183 56.643C79.7203 56.286 79.0378 55.8065 78.4708 55.2045L79.0588 54.2385C79.1148 54.1615 79.1813 54.0985 79.2583 54.0495C79.3423 53.9935 79.4333 53.9655 79.5313 53.9655C79.6223 53.9655 79.7238 54.004 79.8358 54.081C79.9548 54.151 80.0878 54.242 80.2348 54.354C80.3818 54.466 80.5498 54.5885 80.7388 54.7215C80.9278 54.8545 81.1413 54.977 81.3793 55.089C81.6243 55.201 81.9008 55.2955 82.2088 55.3725C82.5168 55.4425 82.8633 55.4775 83.2483 55.4775C83.7313 55.4775 84.1618 55.411 84.5398 55.278C84.9178 55.145 85.2363 54.9595 85.4953 54.7215C85.7613 54.4765 85.9643 54.186 86.1043 53.85C86.2443 53.514 86.3143 53.1395 86.3143 52.7265C86.3143 52.2715 86.2093 51.9005 85.9993 51.6135C85.7963 51.3195 85.5268 51.0745 85.1908 50.8785C84.8548 50.6825 84.4698 50.518 84.0358 50.385C83.6018 50.245 83.1608 50.105 82.7128 49.965C82.2648 49.818 81.8238 49.65 81.3898 49.461C80.9558 49.272 80.5708 49.027 80.2348 48.726C79.8988 48.425 79.6258 48.0505 79.4158 47.6025C79.2128 47.1475 79.1113 46.5875 79.1113 45.9225C79.1113 45.3905 79.2128 44.876 79.4158 44.379C79.6258 43.882 79.9268 43.441 80.3188 43.056C80.7178 42.671 81.2043 42.363 81.7783 42.132C82.3593 41.901 83.0243 41.7855 83.7733 41.7855C84.6133 41.7855 85.3763 41.9185 86.0623 42.1845C86.7553 42.4505 87.3643 42.8355 87.8893 43.3395L87.3958 44.3055ZM95.0827 46.1955C95.8597 46.1955 96.5597 46.325 97.1827 46.584C97.8057 46.843 98.3377 47.2105 98.7787 47.6865C99.2197 48.1625 99.5557 48.74 99.7867 49.419C100.025 50.091 100.144 50.8435 100.144 51.6765C100.144 52.5165 100.025 53.2725 99.7867 53.9445C99.5557 54.6165 99.2197 55.1905 98.7787 55.6665C98.3377 56.1425 97.8057 56.51 97.1827 56.769C96.5597 57.021 95.8597 57.147 95.0827 57.147C94.2987 57.147 93.5917 57.021 92.9617 56.769C92.3387 56.51 91.8067 56.1425 91.3657 55.6665C90.9247 55.1905 90.5852 54.6165 90.3472 53.9445C90.1162 53.2725 90.0007 52.5165 90.0007 51.6765C90.0007 50.8435 90.1162 50.091 90.3472 49.419C90.5852 48.74 90.9247 48.1625 91.3657 47.6865C91.8067 47.2105 92.3387 46.843 92.9617 46.584C93.5917 46.325 94.2987 46.1955 95.0827 46.1955ZM95.0827 55.6875C96.1327 55.6875 96.9167 55.3375 97.4347 54.6375C97.9527 53.9305 98.2117 52.947 98.2117 51.687C98.2117 50.42 97.9527 49.433 97.4347 48.726C96.9167 48.019 96.1327 47.6655 95.0827 47.6655C94.5507 47.6655 94.0852 47.7565 93.6862 47.9385C93.2942 48.1205 92.9652 48.383 92.6992 48.726C92.4402 49.069 92.2442 49.4925 92.1112 49.9965C91.9852 50.4935 91.9222 51.057 91.9222 51.687C91.9222 52.947 92.1812 53.9305 92.6992 54.6375C93.2242 55.3375 94.0187 55.6875 95.0827 55.6875ZM104.446 41.5335V57H102.577V41.5335H104.446ZM116.224 46.3635V57H115.111C114.845 57 114.677 56.8705 114.607 56.6115L114.46 55.467C113.998 55.978 113.48 56.391 112.906 56.706C112.332 57.014 111.674 57.168 110.932 57.168C110.351 57.168 109.836 57.0735 109.388 56.8845C108.947 56.6885 108.576 56.4155 108.275 56.0655C107.974 55.7155 107.747 55.292 107.593 54.795C107.446 54.298 107.372 53.7485 107.372 53.1465V46.3635H109.241V53.1465C109.241 53.9515 109.423 54.5745 109.787 55.0155C110.158 55.4565 110.722 55.677 111.478 55.677C112.031 55.677 112.545 55.5475 113.021 55.2885C113.504 55.0225 113.949 54.6585 114.355 54.1965V46.3635H116.224ZM129.057 57H127.188V47.928H121.707V54.312C121.707 54.76 121.816 55.0925 122.033 55.3095C122.25 55.5265 122.53 55.635 122.873 55.635C123.069 55.635 123.237 55.6105 123.377 55.5615C123.524 55.5055 123.65 55.446 123.755 55.383C123.86 55.32 123.947 55.264 124.017 55.215C124.094 55.159 124.161 55.131 124.217 55.131C124.315 55.131 124.402 55.1905 124.479 55.3095L125.025 56.202C124.703 56.503 124.315 56.741 123.86 56.916C123.405 57.084 122.936 57.168 122.453 57.168C121.613 57.168 120.965 56.9335 120.51 56.4645C120.062 55.9955 119.838 55.32 119.838 54.438V47.928H118.557C118.445 47.928 118.351 47.8965 118.274 47.8335C118.197 47.7635 118.158 47.6585 118.158 47.5185V46.773L119.901 46.542L120.332 43.266C120.353 43.161 120.398 43.077 120.468 43.014C120.545 42.944 120.643 42.909 120.762 42.909H121.707V46.5735H129.057V57ZM129.519 42.951C129.519 43.133 129.481 43.3045 129.404 43.4655C129.334 43.6195 129.236 43.756 129.11 43.875C128.991 43.994 128.851 44.0885 128.69 44.1585C128.529 44.2285 128.357 44.2635 128.175 44.2635C127.993 44.2635 127.822 44.2285 127.661 44.1585C127.507 44.0885 127.37 43.994 127.251 43.875C127.132 43.756 127.038 43.6195 126.968 43.4655C126.898 43.3045 126.863 43.133 126.863 42.951C126.863 42.769 126.898 42.5975 126.968 42.4365C127.038 42.2685 127.132 42.125 127.251 42.006C127.37 41.88 127.507 41.782 127.661 41.712C127.822 41.642 127.993 41.607 128.175 41.607C128.357 41.607 128.529 41.642 128.69 41.712C128.851 41.782 128.991 41.88 129.11 42.006C129.236 42.125 129.334 42.2685 129.404 42.4365C129.481 42.5975 129.519 42.769 129.519 42.951ZM136.611 46.1955C137.388 46.1955 138.088 46.325 138.711 46.584C139.334 46.843 139.866 47.2105 140.307 47.6865C140.748 48.1625 141.084 48.74 141.315 49.419C141.553 50.091 141.672 50.8435 141.672 51.6765C141.672 52.5165 141.553 53.2725 141.315 53.9445C141.084 54.6165 140.748 55.1905 140.307 55.6665C139.866 56.1425 139.334 56.51 138.711 56.769C138.088 57.021 137.388 57.147 136.611 57.147C135.827 57.147 135.12 57.021 134.49 56.769C133.867 56.51 133.335 56.1425 132.894 55.6665C132.453 55.1905 132.113 54.6165 131.875 53.9445C131.644 53.2725 131.529 52.5165 131.529 51.6765C131.529 50.8435 131.644 50.091 131.875 49.419C132.113 48.74 132.453 48.1625 132.894 47.6865C133.335 47.2105 133.867 46.843 134.49 46.584C135.12 46.325 135.827 46.1955 136.611 46.1955ZM136.611 55.6875C137.661 55.6875 138.445 55.3375 138.963 54.6375C139.481 53.9305 139.74 52.947 139.74 51.687C139.74 50.42 139.481 49.433 138.963 48.726C138.445 48.019 137.661 47.6655 136.611 47.6655C136.079 47.6655 135.613 47.7565 135.214 47.9385C134.822 48.1205 134.493 48.383 134.227 48.726C133.968 49.069 133.772 49.4925 133.639 49.9965C133.513 50.4935 133.45 51.057 133.45 51.687C133.45 52.947 133.709 53.9305 134.227 54.6375C134.752 55.3375 135.547 55.6875 136.611 55.6875ZM145.807 47.907C146.038 47.648 146.283 47.4135 146.542 47.2035C146.801 46.9935 147.074 46.815 147.361 46.668C147.655 46.514 147.963 46.3985 148.285 46.3215C148.614 46.2375 148.967 46.1955 149.345 46.1955C149.926 46.1955 150.437 46.2935 150.878 46.4895C151.326 46.6785 151.697 46.9515 151.991 47.3085C152.292 47.6585 152.52 48.082 152.674 48.579C152.828 49.076 152.905 49.6255 152.905 50.2275V57H151.025V50.2275C151.025 49.4225 150.84 48.7995 150.469 48.3585C150.105 47.9105 149.548 47.6865 148.799 47.6865C148.246 47.6865 147.728 47.8195 147.245 48.0855C146.769 48.3515 146.328 48.712 145.922 49.167V57H144.043V46.3635H145.166C145.432 46.3635 145.597 46.493 145.66 46.752L145.807 47.907Z" fill="black"/>
</svg>
