<svg width="107" height="42" viewBox="0 0 107 42" fill="none" xmlns="http://www.w3.org/2000/svg">
<ellipse cx="20.4405" cy="7.24999" rx="6.5513" ry="6.46853" fill="black"/>
<ellipse cx="20.4405" cy="20.737" rx="6.5513" ry="6.46853" fill="black"/>
<ellipse cx="20.4405" cy="34.313" rx="6.5513" ry="6.46853" fill="black"/>
<ellipse cx="6.5513" cy="7.24999" rx="6.5513" ry="6.46853" fill="black"/>
<ellipse cx="6.5513" cy="34.313" rx="6.5513" ry="6.46853" fill="#D09F20"/>
<ellipse cx="6.5513" cy="20.737" rx="6.5513" ry="6.46853" fill="#D09F20"/>
<ellipse cx="34.6094" cy="20.737" rx="6.5513" ry="6.46853" fill="#D09F20"/>
<ellipse cx="34.5513" cy="34.75" rx="6.5513" ry="6.46853" fill="#D09F20"/>
<ellipse cx="34.2852" cy="7.24999" rx="6.5513" ry="6.46853" fill="black"/>
<path d="M57.9306 16.05C57.9306 16.85 57.8306 17.5667 57.6306 18.2C57.4373 18.8333 57.1473 19.37 56.7606 19.81C56.3806 20.2433 55.9106 20.5767 55.3506 20.81C54.7906 21.0433 54.1473 21.16 53.4206 21.16C52.7606 21.16 52.0873 21.0667 51.4006 20.88C51.414 20.6867 51.4306 20.4967 51.4506 20.31C51.4706 20.1167 51.4873 19.9267 51.5006 19.74C51.514 19.6267 51.554 19.5367 51.6206 19.47C51.694 19.3967 51.804 19.36 51.9506 19.36C52.0706 19.36 52.2273 19.39 52.4206 19.45C52.6206 19.51 52.8873 19.54 53.2206 19.54C53.6606 19.54 54.054 19.4733 54.4006 19.34C54.7473 19.2067 55.0373 19 55.2706 18.72C55.504 18.44 55.6806 18.0833 55.8006 17.65C55.9273 17.21 55.9906 16.69 55.9906 16.09V6.67H57.9306V16.05ZM74.6877 13.84C74.6877 14.9133 74.5177 15.9 74.1777 16.8C73.8377 17.6933 73.3577 18.4633 72.7377 19.11C72.1177 19.7567 71.371 20.26 70.4977 20.62C69.631 20.9733 68.671 21.15 67.6177 21.15C66.5643 21.15 65.6043 20.9733 64.7377 20.62C63.871 20.26 63.1277 19.7567 62.5077 19.11C61.8877 18.4633 61.4077 17.6933 61.0677 16.8C60.7277 15.9 60.5577 14.9133 60.5577 13.84C60.5577 12.7667 60.7277 11.7833 61.0677 10.89C61.4077 9.99 61.8877 9.21667 62.5077 8.57C63.1277 7.91667 63.871 7.41 64.7377 7.05C65.6043 6.69 66.5643 6.51 67.6177 6.51C68.671 6.51 69.631 6.69 70.4977 7.05C71.371 7.41 72.1177 7.91667 72.7377 8.57C73.3577 9.21667 73.8377 9.99 74.1777 10.89C74.5177 11.7833 74.6877 12.7667 74.6877 13.84ZM72.6977 13.84C72.6977 12.96 72.5777 12.17 72.3377 11.47C72.0977 10.77 71.7577 10.18 71.3177 9.7C70.8777 9.21333 70.3443 8.84 69.7177 8.58C69.091 8.32 68.391 8.19 67.6177 8.19C66.851 8.19 66.1543 8.32 65.5277 8.58C64.901 8.84 64.3643 9.21333 63.9177 9.7C63.4777 10.18 63.1377 10.77 62.8977 11.47C62.6577 12.17 62.5377 12.96 62.5377 13.84C62.5377 14.72 62.6577 15.51 62.8977 16.21C63.1377 16.9033 63.4777 17.4933 63.9177 17.98C64.3643 18.46 64.901 18.83 65.5277 19.09C66.1543 19.3433 66.851 19.47 67.6177 19.47C68.391 19.47 69.091 19.3433 69.7177 19.09C70.3443 18.83 70.8777 18.46 71.3177 17.98C71.7577 17.4933 72.0977 16.9033 72.3377 16.21C72.5777 15.51 72.6977 14.72 72.6977 13.84ZM86.5088 8.3H81.8688V21H79.9388V8.3H75.2888V6.67H86.5088V8.3Z" fill="#D09F20"/>
<path d="M58.0306 28.9325C57.9856 29.0075 57.9356 29.065 57.8806 29.105C57.8306 29.14 57.7681 29.1575 57.6931 29.1575C57.6081 29.1575 57.5081 29.115 57.3931 29.03C57.2781 28.945 57.1331 28.8525 56.9581 28.7525C56.7881 28.6475 56.5806 28.5525 56.3356 28.4675C56.0956 28.3825 55.8031 28.34 55.4581 28.34C55.1331 28.34 54.8456 28.385 54.5956 28.475C54.3506 28.56 54.1431 28.6775 53.9731 28.8275C53.8081 28.9775 53.6831 29.155 53.5981 29.36C53.5131 29.56 53.4706 29.7775 53.4706 30.0125C53.4706 30.3125 53.5431 30.5625 53.6881 30.7625C53.8381 30.9575 54.0331 31.125 54.2731 31.265C54.5181 31.405 54.7931 31.5275 55.0981 31.6325C55.4081 31.7325 55.7231 31.8375 56.0431 31.9475C56.3681 32.0575 56.6831 32.1825 56.9881 32.3225C57.2981 32.4575 57.5731 32.63 57.8131 32.84C58.0581 33.05 58.2531 33.3075 58.3981 33.6125C58.5481 33.9175 58.6231 34.2925 58.6231 34.7375C58.6231 35.2075 58.5431 35.65 58.3831 36.065C58.2231 36.475 57.9881 36.8325 57.6781 37.1375C57.3731 37.4425 56.9956 37.6825 56.5456 37.8575C56.1006 38.0325 55.5931 38.12 55.0231 38.12C54.3231 38.12 53.6881 37.995 53.1181 37.745C52.5481 37.49 52.0606 37.1475 51.6556 36.7175L52.0756 36.0275C52.1156 35.9725 52.1631 35.9275 52.2181 35.8925C52.2781 35.8525 52.3431 35.8325 52.4131 35.8325C52.4781 35.8325 52.5506 35.86 52.6306 35.915C52.7156 35.965 52.8106 36.03 52.9156 36.11C53.0206 36.19 53.1406 36.2775 53.2756 36.3725C53.4106 36.4675 53.5631 36.555 53.7331 36.635C53.9081 36.715 54.1056 36.7825 54.3256 36.8375C54.5456 36.8875 54.7931 36.9125 55.0681 36.9125C55.4131 36.9125 55.7206 36.865 55.9906 36.77C56.2606 36.675 56.4881 36.5425 56.6731 36.3725C56.8631 36.1975 57.0081 35.99 57.1081 35.75C57.2081 35.51 57.2581 35.2425 57.2581 34.9475C57.2581 34.6225 57.1831 34.3575 57.0331 34.1525C56.8881 33.9425 56.6956 33.7675 56.4556 33.6275C56.2156 33.4875 55.9406 33.37 55.6306 33.275C55.3206 33.175 55.0056 33.075 54.6856 32.975C54.3656 32.87 54.0506 32.75 53.7406 32.615C53.4306 32.48 53.1556 32.305 52.9156 32.09C52.6756 31.875 52.4806 31.6075 52.3306 31.2875C52.1856 30.9625 52.1131 30.5625 52.1131 30.0875C52.1131 29.7075 52.1856 29.34 52.3306 28.985C52.4806 28.63 52.6956 28.315 52.9756 28.04C53.2606 27.765 53.6081 27.545 54.0181 27.38C54.4331 27.215 54.9081 27.1325 55.4431 27.1325C56.0431 27.1325 56.5881 27.2275 57.0781 27.4175C57.5731 27.6075 58.0081 27.8825 58.3831 28.2425L58.0306 28.9325ZM63.5212 30.2825C64.0762 30.2825 64.5762 30.375 65.0212 30.56C65.4662 30.745 65.8462 31.0075 66.1612 31.3475C66.4762 31.6875 66.7162 32.1 66.8812 32.585C67.0512 33.065 67.1362 33.6025 67.1362 34.1975C67.1362 34.7975 67.0512 35.3375 66.8812 35.8175C66.7162 36.2975 66.4762 36.7075 66.1612 37.0475C65.8462 37.3875 65.4662 37.65 65.0212 37.835C64.5762 38.015 64.0762 38.105 63.5212 38.105C62.9612 38.105 62.4562 38.015 62.0062 37.835C61.5612 37.65 61.1812 37.3875 60.8662 37.0475C60.5512 36.7075 60.3087 36.2975 60.1387 35.8175C59.9737 35.3375 59.8912 34.7975 59.8912 34.1975C59.8912 33.6025 59.9737 33.065 60.1387 32.585C60.3087 32.1 60.5512 31.6875 60.8662 31.3475C61.1812 31.0075 61.5612 30.745 62.0062 30.56C62.4562 30.375 62.9612 30.2825 63.5212 30.2825ZM63.5212 37.0625C64.2712 37.0625 64.8312 36.8125 65.2012 36.3125C65.5712 35.8075 65.7562 35.105 65.7562 34.205C65.7562 33.3 65.5712 32.595 65.2012 32.09C64.8312 31.585 64.2712 31.3325 63.5212 31.3325C63.1412 31.3325 62.8087 31.3975 62.5237 31.5275C62.2437 31.6575 62.0087 31.845 61.8187 32.09C61.6337 32.335 61.4937 32.6375 61.3987 32.9975C61.3087 33.3525 61.2637 33.755 61.2637 34.205C61.2637 35.105 61.4487 35.8075 61.8187 36.3125C62.1937 36.8125 62.7612 37.0625 63.5212 37.0625ZM70.2095 26.9525V38H68.8745V26.9525H70.2095ZM78.6219 30.4025V38H77.8269C77.6369 38 77.5169 37.9075 77.4669 37.7225L77.3619 36.905C77.0319 37.27 76.6619 37.565 76.2519 37.79C75.8419 38.01 75.3719 38.12 74.8419 38.12C74.4269 38.12 74.0594 38.0525 73.7394 37.9175C73.4244 37.7775 73.1594 37.5825 72.9444 37.3325C72.7294 37.0825 72.5669 36.78 72.4569 36.425C72.3519 36.07 72.2994 35.6775 72.2994 35.2475V30.4025H73.6344V35.2475C73.6344 35.8225 73.7644 36.2675 74.0244 36.5825C74.2894 36.8975 74.6919 37.055 75.2319 37.055C75.6269 37.055 75.9944 36.9625 76.3344 36.7775C76.6794 36.5875 76.9969 36.3275 77.2869 35.9975V30.4025H78.6219ZM87.7887 38H86.4537V31.52H82.5387V36.08C82.5387 36.4 82.6162 36.6375 82.7712 36.7925C82.9262 36.9475 83.1262 37.025 83.3712 37.025C83.5112 37.025 83.6312 37.0075 83.7312 36.9725C83.8362 36.9325 83.9262 36.89 84.0012 36.845C84.0762 36.8 84.1387 36.76 84.1887 36.725C84.2437 36.685 84.2912 36.665 84.3312 36.665C84.4012 36.665 84.4637 36.7075 84.5187 36.7925L84.9087 37.43C84.6787 37.645 84.4012 37.815 84.0762 37.94C83.7512 38.06 83.4162 38.12 83.0712 38.12C82.4712 38.12 82.0087 37.9525 81.6837 37.6175C81.3637 37.2825 81.2037 36.8 81.2037 36.17V31.52H80.2887C80.2087 31.52 80.1412 31.4975 80.0862 31.4525C80.0312 31.4025 80.0037 31.3275 80.0037 31.2275V30.695L81.2487 30.53L81.5562 28.19C81.5712 28.115 81.6037 28.055 81.6537 28.01C81.7087 27.96 81.7787 27.935 81.8637 27.935H82.5387V30.5525H87.7887V38ZM88.1187 27.965C88.1187 28.095 88.0912 28.2175 88.0362 28.3325C87.9862 28.4425 87.9162 28.54 87.8262 28.625C87.7412 28.71 87.6412 28.7775 87.5262 28.8275C87.4112 28.8775 87.2887 28.9025 87.1587 28.9025C87.0287 28.9025 86.9062 28.8775 86.7912 28.8275C86.6812 28.7775 86.5837 28.71 86.4987 28.625C86.4137 28.54 86.3462 28.4425 86.2962 28.3325C86.2462 28.2175 86.2212 28.095 86.2212 27.965C86.2212 27.835 86.2462 27.7125 86.2962 27.5975C86.3462 27.4775 86.4137 27.375 86.4987 27.29C86.5837 27.2 86.6812 27.13 86.7912 27.08C86.9062 27.03 87.0287 27.005 87.1587 27.005C87.2887 27.005 87.4112 27.03 87.5262 27.08C87.6412 27.13 87.7412 27.2 87.8262 27.29C87.9162 27.375 87.9862 27.4775 88.0362 27.5975C88.0912 27.7125 88.1187 27.835 88.1187 27.965ZM93.1843 30.2825C93.7393 30.2825 94.2393 30.375 94.6843 30.56C95.1293 30.745 95.5093 31.0075 95.8243 31.3475C96.1393 31.6875 96.3793 32.1 96.5443 32.585C96.7143 33.065 96.7993 33.6025 96.7993 34.1975C96.7993 34.7975 96.7143 35.3375 96.5443 35.8175C96.3793 36.2975 96.1393 36.7075 95.8243 37.0475C95.5093 37.3875 95.1293 37.65 94.6843 37.835C94.2393 38.015 93.7393 38.105 93.1843 38.105C92.6243 38.105 92.1193 38.015 91.6693 37.835C91.2243 37.65 90.8443 37.3875 90.5293 37.0475C90.2143 36.7075 89.9718 36.2975 89.8018 35.8175C89.6368 35.3375 89.5543 34.7975 89.5543 34.1975C89.5543 33.6025 89.6368 33.065 89.8018 32.585C89.9718 32.1 90.2143 31.6875 90.5293 31.3475C90.8443 31.0075 91.2243 30.745 91.6693 30.56C92.1193 30.375 92.6243 30.2825 93.1843 30.2825ZM93.1843 37.0625C93.9343 37.0625 94.4943 36.8125 94.8643 36.3125C95.2343 35.8075 95.4193 35.105 95.4193 34.205C95.4193 33.3 95.2343 32.595 94.8643 32.09C94.4943 31.585 93.9343 31.3325 93.1843 31.3325C92.8043 31.3325 92.4718 31.3975 92.1868 31.5275C91.9068 31.6575 91.6718 31.845 91.4818 32.09C91.2968 32.335 91.1568 32.6375 91.0618 32.9975C90.9718 33.3525 90.9268 33.755 90.9268 34.205C90.9268 35.105 91.1118 35.8075 91.4818 36.3125C91.8568 36.8125 92.4243 37.0625 93.1843 37.0625ZM99.7526 31.505C99.9176 31.32 100.093 31.1525 100.278 31.0025C100.463 30.8525 100.658 30.725 100.863 30.62C101.073 30.51 101.293 30.4275 101.523 30.3725C101.758 30.3125 102.01 30.2825 102.28 30.2825C102.695 30.2825 103.06 30.3525 103.375 30.4925C103.695 30.6275 103.96 30.8225 104.17 31.0775C104.385 31.3275 104.548 31.63 104.658 31.985C104.768 32.34 104.823 32.7325 104.823 33.1625V38H103.48V33.1625C103.48 32.5875 103.348 32.1425 103.083 31.8275C102.823 31.5075 102.425 31.3475 101.89 31.3475C101.495 31.3475 101.125 31.4425 100.78 31.6325C100.44 31.8225 100.125 32.08 99.8351 32.405V38H98.4926V30.4025H99.2951C99.4851 30.4025 99.6026 30.495 99.6476 30.68L99.7526 31.505Z" fill="black"/>
</svg>
