<svg width="53" height="20" viewBox="0 0 53 20" fill="none" xmlns="http://www.w3.org/2000/svg">
<circle cx="10" cy="3" r="3" fill="black"/>
<circle cx="10" cy="10" r="3" fill="black"/>
<circle cx="10" cy="17" r="3" fill="black"/>
<circle cx="3" cy="3" r="3" fill="black"/>
<circle cx="3" cy="17" r="3" fill="#D09F20"/>
<circle cx="3" cy="10" r="3" fill="#D09F20"/>
<circle cx="17" cy="10" r="3" fill="#D09F20"/>
<circle cx="17" cy="17" r="3" fill="#D09F20"/>
<circle cx="17" cy="3" r="3" fill="black"/>
<path d="M26.664 13.164C26.64 13.204 26.6133 13.2347 26.584 13.256C26.5573 13.2747 26.524 13.284 26.484 13.284C26.4387 13.284 26.3853 13.2613 26.324 13.216C26.2627 13.1707 26.1853 13.1213 26.092 13.068C26.0013 13.012 25.8907 12.9613 25.76 12.916C25.632 12.8707 25.476 12.848 25.292 12.848C25.1187 12.848 24.9653 12.872 24.832 12.92C24.7013 12.9653 24.5907 13.028 24.5 13.108C24.412 13.188 24.3453 13.2827 24.3 13.392C24.2547 13.4987 24.232 13.6147 24.232 13.74C24.232 13.9 24.2707 14.0333 24.348 14.14C24.428 14.244 24.532 14.3333 24.66 14.408C24.7907 14.4827 24.9373 14.548 25.1 14.604C25.2653 14.6573 25.4333 14.7133 25.604 14.772C25.7773 14.8307 25.9453 14.8973 26.108 14.972C26.2733 15.044 26.42 15.136 26.548 15.248C26.6787 15.36 26.7827 15.4973 26.86 15.66C26.94 15.8227 26.98 16.0227 26.98 16.26C26.98 16.5107 26.9373 16.7467 26.852 16.968C26.7667 17.1867 26.6413 17.3773 26.476 17.54C26.3133 17.7027 26.112 17.8307 25.872 17.924C25.6347 18.0173 25.364 18.064 25.06 18.064C24.6867 18.064 24.348 17.9973 24.044 17.864C23.74 17.728 23.48 17.5453 23.264 17.316L23.488 16.948C23.5093 16.9187 23.5347 16.8947 23.564 16.876C23.596 16.8547 23.6307 16.844 23.668 16.844C23.7027 16.844 23.7413 16.8587 23.784 16.888C23.8293 16.9147 23.88 16.9493 23.936 16.992C23.992 17.0347 24.056 17.0813 24.128 17.132C24.2 17.1827 24.2813 17.2293 24.372 17.272C24.4653 17.3147 24.5707 17.3507 24.688 17.38C24.8053 17.4067 24.9373 17.42 25.084 17.42C25.268 17.42 25.432 17.3947 25.576 17.344C25.72 17.2933 25.8413 17.2227 25.94 17.132C26.0413 17.0387 26.1187 16.928 26.172 16.8C26.2253 16.672 26.252 16.5293 26.252 16.372C26.252 16.1987 26.212 16.0573 26.132 15.948C26.0547 15.836 25.952 15.7427 25.824 15.668C25.696 15.5933 25.5493 15.5307 25.384 15.48C25.2187 15.4267 25.0507 15.3733 24.88 15.32C24.7093 15.264 24.5413 15.2 24.376 15.128C24.2107 15.056 24.064 14.9627 23.936 14.848C23.808 14.7333 23.704 14.5907 23.624 14.42C23.5467 14.2467 23.508 14.0333 23.508 13.78C23.508 13.5773 23.5467 13.3813 23.624 13.192C23.704 13.0027 23.8187 12.8347 23.968 12.688C24.12 12.5413 24.3053 12.424 24.524 12.336C24.7453 12.248 24.9987 12.204 25.284 12.204C25.604 12.204 25.8947 12.2547 26.156 12.356C26.42 12.4573 26.652 12.604 26.852 12.796L26.664 13.164ZM29.5923 13.884C29.8883 13.884 30.155 13.9333 30.3923 14.032C30.6296 14.1307 30.8323 14.2707 31.0003 14.452C31.1683 14.6333 31.2963 14.8533 31.3843 15.112C31.475 15.368 31.5203 15.6547 31.5203 15.972C31.5203 16.292 31.475 16.58 31.3843 16.836C31.2963 17.092 31.1683 17.3107 31.0003 17.492C30.8323 17.6733 30.6296 17.8133 30.3923 17.912C30.155 18.008 29.8883 18.056 29.5923 18.056C29.2936 18.056 29.0243 18.008 28.7843 17.912C28.547 17.8133 28.3443 17.6733 28.1763 17.492C28.0083 17.3107 27.879 17.092 27.7883 16.836C27.7003 16.58 27.6563 16.292 27.6563 15.972C27.6563 15.6547 27.7003 15.368 27.7883 15.112C27.879 14.8533 28.0083 14.6333 28.1763 14.452C28.3443 14.2707 28.547 14.1307 28.7843 14.032C29.0243 13.9333 29.2936 13.884 29.5923 13.884ZM29.5923 17.5C29.9923 17.5 30.291 17.3667 30.4883 17.1C30.6856 16.8307 30.7843 16.456 30.7843 15.976C30.7843 15.4933 30.6856 15.1173 30.4883 14.848C30.291 14.5787 29.9923 14.444 29.5923 14.444C29.3896 14.444 29.2123 14.4787 29.0603 14.548C28.911 14.6173 28.7856 14.7173 28.6843 14.848C28.5856 14.9787 28.511 15.14 28.4603 15.332C28.4123 15.5213 28.3883 15.736 28.3883 15.976C28.3883 16.456 28.487 16.8307 28.6843 17.1C28.8843 17.3667 29.187 17.5 29.5923 17.5ZM33.1594 12.108V18H32.4474V12.108H33.1594ZM37.646 13.948V18H37.222C37.1207 18 37.0567 17.9507 37.03 17.852L36.974 17.416C36.798 17.6107 36.6007 17.768 36.382 17.888C36.1633 18.0053 35.9127 18.064 35.63 18.064C35.4087 18.064 35.2127 18.028 35.042 17.956C34.874 17.8813 34.7327 17.7773 34.618 17.644C34.5033 17.5107 34.4167 17.3493 34.358 17.16C34.302 16.9707 34.274 16.7613 34.274 16.532V13.948H34.986V16.532C34.986 16.8387 35.0553 17.076 35.194 17.244C35.3353 17.412 35.55 17.496 35.838 17.496C36.0487 17.496 36.2447 17.4467 36.426 17.348C36.61 17.2467 36.7793 17.108 36.934 16.932V13.948H37.646ZM42.5349 18H41.8229V14.544H39.7349V16.976C39.7349 17.1467 39.7763 17.2733 39.8589 17.356C39.9416 17.4387 40.0483 17.48 40.1789 17.48C40.2536 17.48 40.3176 17.4707 40.3709 17.452C40.4269 17.4307 40.4749 17.408 40.5149 17.384C40.5549 17.36 40.5883 17.3387 40.6149 17.32C40.6443 17.2987 40.6696 17.288 40.6909 17.288C40.7283 17.288 40.7616 17.3107 40.7909 17.356L40.9989 17.696C40.8763 17.8107 40.7283 17.9013 40.5549 17.968C40.3816 18.032 40.2029 18.064 40.0189 18.064C39.6989 18.064 39.4523 17.9747 39.2789 17.796C39.1083 17.6173 39.0229 17.36 39.0229 17.024V14.544H38.5349C38.4923 14.544 38.4563 14.532 38.4269 14.508C38.3976 14.4813 38.3829 14.4413 38.3829 14.388V14.104L39.0469 14.016L39.2109 12.768C39.2189 12.728 39.2363 12.696 39.2629 12.672C39.2923 12.6453 39.3296 12.632 39.3749 12.632H39.7349V14.028H42.5349V18ZM42.7109 12.648C42.7109 12.7173 42.6963 12.7827 42.6669 12.844C42.6403 12.9027 42.6029 12.9547 42.5549 13C42.5096 13.0453 42.4563 13.0813 42.3949 13.108C42.3336 13.1347 42.2683 13.148 42.1989 13.148C42.1296 13.148 42.0643 13.1347 42.0029 13.108C41.9443 13.0813 41.8923 13.0453 41.8469 13C41.8016 12.9547 41.7656 12.9027 41.7389 12.844C41.7123 12.7827 41.6989 12.7173 41.6989 12.648C41.6989 12.5787 41.7123 12.5133 41.7389 12.452C41.7656 12.388 41.8016 12.3333 41.8469 12.288C41.8923 12.24 41.9443 12.2027 42.0029 12.176C42.0643 12.1493 42.1296 12.136 42.1989 12.136C42.2683 12.136 42.3336 12.1493 42.3949 12.176C42.4563 12.2027 42.5096 12.24 42.5549 12.288C42.6029 12.3333 42.6403 12.388 42.6669 12.452C42.6963 12.5133 42.7109 12.5787 42.7109 12.648ZM45.4126 13.884C45.7086 13.884 45.9753 13.9333 46.2126 14.032C46.45 14.1307 46.6526 14.2707 46.8206 14.452C46.9886 14.6333 47.1166 14.8533 47.2046 15.112C47.2953 15.368 47.3406 15.6547 47.3406 15.972C47.3406 16.292 47.2953 16.58 47.2046 16.836C47.1166 17.092 46.9886 17.3107 46.8206 17.492C46.6526 17.6733 46.45 17.8133 46.2126 17.912C45.9753 18.008 45.7086 18.056 45.4126 18.056C45.114 18.056 44.8446 18.008 44.6046 17.912C44.3673 17.8133 44.1646 17.6733 43.9966 17.492C43.8286 17.3107 43.6993 17.092 43.6086 16.836C43.5206 16.58 43.4766 16.292 43.4766 15.972C43.4766 15.6547 43.5206 15.368 43.6086 15.112C43.6993 14.8533 43.8286 14.6333 43.9966 14.452C44.1646 14.2707 44.3673 14.1307 44.6046 14.032C44.8446 13.9333 45.114 13.884 45.4126 13.884ZM45.4126 17.5C45.8126 17.5 46.1113 17.3667 46.3086 17.1C46.506 16.8307 46.6046 16.456 46.6046 15.976C46.6046 15.4933 46.506 15.1173 46.3086 14.848C46.1113 14.5787 45.8126 14.444 45.4126 14.444C45.21 14.444 45.0326 14.4787 44.8806 14.548C44.7313 14.6173 44.606 14.7173 44.5046 14.848C44.406 14.9787 44.3313 15.14 44.2806 15.332C44.2326 15.5213 44.2086 15.736 44.2086 15.976C44.2086 16.456 44.3073 16.8307 44.5046 17.1C44.7046 17.3667 45.0073 17.5 45.4126 17.5ZM48.9157 14.536C49.0037 14.4373 49.097 14.348 49.1957 14.268C49.2944 14.188 49.3984 14.12 49.5077 14.064C49.6197 14.0053 49.737 13.9613 49.8597 13.932C49.985 13.9 50.1197 13.884 50.2637 13.884C50.485 13.884 50.6797 13.9213 50.8477 13.996C51.0184 14.068 51.1597 14.172 51.2717 14.308C51.3864 14.4413 51.473 14.6027 51.5317 14.792C51.5904 14.9813 51.6197 15.1907 51.6197 15.42V18H50.9037V15.42C50.9037 15.1133 50.833 14.876 50.6917 14.708C50.553 14.5373 50.341 14.452 50.0557 14.452C49.845 14.452 49.6477 14.5027 49.4637 14.604C49.2824 14.7053 49.1144 14.8427 48.9597 15.016V18H48.2437V13.948H48.6717C48.773 13.948 48.8357 13.9973 48.8597 14.096L48.9157 14.536Z" fill="black"/>
<path d="M26.385 7.525C26.385 7.925 26.335 8.28333 26.235 8.6C26.1383 8.91667 25.9933 9.185 25.8 9.405C25.61 9.62167 25.375 9.78833 25.095 9.905C24.815 10.0217 24.4933 10.08 24.13 10.08C23.8 10.08 23.4633 10.0333 23.12 9.94C23.1267 9.84333 23.135 9.74833 23.145 9.655C23.155 9.55833 23.1633 9.46333 23.17 9.37C23.1767 9.31333 23.1967 9.26833 23.23 9.235C23.2667 9.19833 23.3217 9.18 23.395 9.18C23.455 9.18 23.5333 9.195 23.63 9.225C23.73 9.255 23.8633 9.27 24.03 9.27C24.25 9.27 24.4467 9.23667 24.62 9.17C24.7933 9.10333 24.9383 9 25.055 8.86C25.1717 8.72 25.26 8.54167 25.32 8.325C25.3833 8.105 25.415 7.845 25.415 7.545V2.835H26.385V7.525ZM34.7635 6.42C34.7635 6.95667 34.6785 7.45 34.5085 7.9C34.3385 8.34667 34.0985 8.73167 33.7885 9.055C33.4785 9.37833 33.1052 9.63 32.6685 9.81C32.2352 9.98667 31.7552 10.075 31.2285 10.075C30.7018 10.075 30.2218 9.98667 29.7885 9.81C29.3552 9.63 28.9835 9.37833 28.6735 9.055C28.3635 8.73167 28.1235 8.34667 27.9535 7.9C27.7835 7.45 27.6985 6.95667 27.6985 6.42C27.6985 5.88333 27.7835 5.39167 27.9535 4.945C28.1235 4.495 28.3635 4.10833 28.6735 3.785C28.9835 3.45833 29.3552 3.205 29.7885 3.025C30.2218 2.845 30.7018 2.755 31.2285 2.755C31.7552 2.755 32.2352 2.845 32.6685 3.025C33.1052 3.205 33.4785 3.45833 33.7885 3.785C34.0985 4.10833 34.3385 4.495 34.5085 4.945C34.6785 5.39167 34.7635 5.88333 34.7635 6.42ZM33.7685 6.42C33.7685 5.98 33.7085 5.585 33.5885 5.235C33.4685 4.885 33.2985 4.59 33.0785 4.35C32.8585 4.10667 32.5918 3.92 32.2785 3.79C31.9652 3.66 31.6152 3.595 31.2285 3.595C30.8452 3.595 30.4968 3.66 30.1835 3.79C29.8702 3.92 29.6018 4.10667 29.3785 4.35C29.1585 4.59 28.9885 4.885 28.8685 5.235C28.7485 5.585 28.6885 5.98 28.6885 6.42C28.6885 6.86 28.7485 7.255 28.8685 7.605C28.9885 7.95167 29.1585 8.24667 29.3785 8.49C29.6018 8.73 29.8702 8.915 30.1835 9.045C30.4968 9.17167 30.8452 9.235 31.2285 9.235C31.6152 9.235 31.9652 9.17167 32.2785 9.045C32.5918 8.915 32.8585 8.73 33.0785 8.49C33.2985 8.24667 33.4685 7.95167 33.5885 7.605C33.7085 7.255 33.7685 6.86 33.7685 6.42ZM40.6741 3.65H38.3541V10H37.3891V3.65H35.0641V2.835H40.6741V3.65Z" fill="#D09F20"/>
</svg>
