<svg width="20" height="19" viewBox="0 0 20 19" fill="none" xmlns="http://www.w3.org/2000/svg">
<path d="M6.75809 6.75516C7.39403 8.07969 8.26095 9.32109 9.35884 10.419C10.4567 11.5169 11.6981 12.3838 13.0227 13.0197C13.1366 13.0744 13.1936 13.1018 13.2657 13.1228C13.5218 13.1975 13.8364 13.1438 14.0533 12.9885C14.1144 12.9448 14.1666 12.8926 14.271 12.7881C14.5905 12.4687 14.7502 12.309 14.9108 12.2045C15.5165 11.8107 16.2973 11.8107 16.903 12.2045C17.0636 12.309 17.2234 12.4687 17.5428 12.7881L17.7208 12.9662C18.2064 13.4518 18.4492 13.6945 18.5811 13.9553C18.8434 14.4739 18.8434 15.0863 18.5811 15.6049C18.4492 15.8657 18.2064 16.1084 17.7208 16.594L17.5768 16.7381C17.0929 17.222 16.8509 17.4639 16.522 17.6487C16.1569 17.8538 15.59 18.0012 15.1713 18C14.794 17.9989 14.5361 17.9257 14.0204 17.7793C11.2487 16.9926 8.63336 15.5083 6.45144 13.3264C4.26951 11.1445 2.78521 8.52911 1.99854 5.75746C1.85215 5.24172 1.77896 4.98385 1.77784 4.60653C1.77659 4.18785 1.92403 3.6209 2.12909 3.25587C2.31388 2.92691 2.55584 2.68494 3.03977 2.20102L3.1838 2.05699C3.66938 1.57141 3.91218 1.32861 4.17293 1.19672C4.69152 0.934425 5.30395 0.934425 5.82253 1.19672C6.08329 1.32861 6.32608 1.5714 6.81166 2.05699L6.98972 2.23504C7.30916 2.55448 7.46888 2.7142 7.5733 2.87481C7.9671 3.4805 7.96711 4.26134 7.5733 4.86703C7.46888 5.02764 7.30916 5.18736 6.98972 5.5068C6.88527 5.61125 6.83305 5.66347 6.78933 5.72452C6.63399 5.94146 6.58036 6.25601 6.65503 6.51218C6.67604 6.58426 6.70339 6.64123 6.75809 6.75516Z" stroke="#3F5477" stroke-width="2" stroke-linecap="round" stroke-linejoin="round"/>
</svg>
